# AST/ASF file generated using VICON BodyLanguage
# -----------------------------------------------
:version 1.10
:name VICON
:units
  mass 1.0
  length 0.45
  angle deg
:documentation
   .ast/.asf automatically generated from VICON data using
   VICON BodyBuilder and BodyLanguage model FoxedUp or BRILLIANT.MOD
:root
   order TX TY TZ RX RY RZ
   axis XYZ
   position 0 0 0  
   orientation 0 0 0 
:bonedata
  begin
     id 1 
     name lhipjoint
     direction 0.624716 -0.669793 0.401383 
     length 2.38238 
     axis 0 0 0  XYZ
  end
  begin
     id 2 
     name lfemur
     direction 0.34202 -0.939693 0  
     length 6.4574  
     axis 0 0 20  XYZ
    dof rx ry rz
    limits (-160.0 20.0)
           (-70.0 70.0)
           (-60.0 70.0)
  end
  begin
     id 3 
     name ltibia
     direction 0.34202 -0.939693 0   
     length 7.68739   
     axis 0 0 20   XYZ
    dof rx
    limits (-10.0 170.0)
  end
  begin
     id 4 
     name lfoot
     direction 0.0681309 -0.187188 0.979959   
     length 2.46615   
     axis -90 7.62852e-016 20   XYZ
    dof rx rz
    limits (-45.0 90.0)
           (-70.0 20.0)
  end
  begin
     id 5 
     name ltoes
     direction 1.53566e-011 -4.21819e-011 1   
     length 1.2376   
     axis -90 7.62852e-016 20   XYZ
    dof rx
    limits (-90.0 20.0)
  end
  begin
     id 6 
     name rhipjoint
     direction -0.644473 -0.655875 0.393043   
     length 2.43293  
     axis 0 0 0  XYZ 
  end
  begin
     id 7 
     name rfemur
     direction -0.34202 -0.939693 0   
     length 6.7025   
     axis 0 0 -20   XYZ
    dof rx ry rz
    limits (-160.0 20.0)
           (-70.0 70.0)
           (-70.0 60.0)
  end
  begin
     id 8 
     name rtibia
     direction -0.34202 -0.939693 0   
     length 7.80547   
     axis 0 0 -20   XYZ
    dof rx
    limits (-10.0 170.0)
 end
 begin
     id 9 
     name rfoot
     direction -0.0756734 -0.207911 0.975216   
     length 2.40315  
     axis -90 -7.62852e-016 -20   XYZ
    dof rx rz
    limits (-45.0 90.0)
           (-20.0 70.0)
  end
  begin
     id 10 
     name rtoes
     direction -1.5353e-011 -4.21879e-011 1   
     length 1.20477   
     axis -90 -7.62852e-016 -20   XYZ
    dof rx
    limits (-90.0 20.0)
  end
  begin
     id 11 
     name lowerback
     direction 0.0160353 0.987463 -0.157037   
     length 2.18572   
     axis 0 0 0   XYZ
    dof rx ry rz
    limits (-20.0 45.0)
           (-30.0 30.0)
           (-30.0 30.0)
  end
  begin
     id 12 
     name upperback
     direction -0.00499661 0.999756 0.0215076   
     length 2.18016   
     axis 0 0 0   XYZ
    dof rx ry rz
    limits (-20.0 45.0)
           (-30.0 30.0)
           (-30.0 30.0)
  end
  begin
     id 13 
     name thorax
     direction -0.00921346 0.995333 0.0960619   
     length 2.24923   
     axis 0 0 0   XYZ
    dof rx ry rz
    limits (-20.0 45.0)
           (-30.0 30.0)
           (-30.0 30.0)
  end
  begin
     id 14 
     name lowerneck
     direction 0.0274184 0.991181 0.12965   
     length 1.70911   
     axis 0 0 0   XYZ
    dof rx ry rz
    limits (-20.0 45.0)
           (-30.0 30.0)
           (-30.0 30.0)
  end
  begin
     id 15 
     name upperneck
     direction 0.0015627 0.999959 -0.00893559   
     length 1.69312   
     axis 0 0 0   XYZ
    dof rx ry rz
    limits (-20.0 45.0)
           (-30.0 30.0)
           (-30.0 30.0)
  end
  begin
     id 16
     name head
     direction -0.00230242 0.999856 -0.0168327  
     length 1.80241  
     axis 0 0 0   XYZ
    dof rx ry rz
    limits (-20.0 45.0)
           (-30.0 30.0)
           (-30.0 30.0)
  end
  begin
     id 17 
     name lclavicle
     direction 0.955523 0.290741 -0.0494489  
     length 3.84275  
     axis 0 0 0   XYZ
    dof ry rz
    limits (-20.0 10.0)
           (0.0 20.0)
  end
  begin
     id 18 
     name lhumerus
     direction 1 -4.48967e-011 -3.18382e-028   
     length 5.17714   
     axis 180 -30 -90   XYZ
    dof rx ry rz
    limits (-60.0 90.0)
           (-90.0 90.0)
           (-90.0 90.0)
  end
  begin
     id 19
     name lradius
     direction 1 -4.48968e-011 -2.22911e-027   
     length 3.43679   
     axis 180 -30 -90   XYZ
    dof rx
    limits (-10.0 170.0)
  end
  begin
     id 20
     name lwrist
     direction 1 -4.48951e-011 -6.32245e-027   
     length 1.7184   
     axis 3.57107e-015 90 90   XYZ
    dof ry
    limits (-180.0 0.0)
 end
  begin
     id 21 
     name lhand
     direction 1 -4.48924e-011 -1.26431e-026   
     length 0.573117   
     axis 8.06912e-015 90 90   XYZ
    dof rx rz
    limits (-90.0 90.0)
           (-45.0 45.0)
  end
  begin
     id 22 
     name lfingers
     direction 1 -4.49001e-011 -2.52965e-026   
     length 0.462062   
     axis 1.61381e-014 90 90   XYZ
    dof rx
    limits (0.0 90.0)
  end
  begin
     id 23
     name lthumb
     direction 0.707107 -6.35008e-011 0.707107   
     length 0.663431   
     axis -90 45 -1.62303e-014   XYZ
    dof rx rz
    limits (-45.0 45.0)
           (-45.0 45.0)
  end
  begin
     id 24 
     name rclavicle
     direction -0.963917 0.256881 -0.0698287   
     length 3.73057  
     axis 0 0 0   XYZ 
    dof ry rz
    limits (-10.0 20.0)
           (-20.0 0.0)
  end
  begin
     id 25 
     name rhumerus
     direction -1 -4.48962e-011 -2.73982e-027  
     length 5.23908   
     axis 180 30 90   XYZ
    dof rx ry rz
    limits (-90.0 60.0)
           (-90.0 90.0)
           (-90.0 90.0)
  end
  begin
     id 26 
     name rradius
     direction -1 -4.48968e-011 -4.33218e-027   
     length 3.46485   
     axis 180 30 90   XYZ
    dof rx
    limits (-10.0 170.0)
  end
  begin
     id 27 
     name rwrist
     direction -1 -4.48989e-011 -6.32372e-027   
     length 1.73243   
     axis 3.57107e-015 -90 -90   XYZ
    dof ry
    limits (-180.0 0.0)
  end
  begin
     id 28
     name rhand
     direction -1 -4.48948e-011 -1.26448e-026   
     length 0.608752   
     axis 8.06912e-015 -90 -90   XYZ
    dof rx rz
    limits (-90.0 90.0)
           (-45.0 45.0)
  end
  begin
     id 29
     name rfingers
     direction -1 -4.48962e-011 -2.52913e-026   
     length 0.490792   
     axis 1.61381e-014 -90 -90   XYZ
    dof rx
    limits (0.0 90.0)
  end
  begin
     id 30
     name rthumb
     direction -0.707107 -6.34878e-011 0.707107   
     length 0.704682   
     axis -90 -45 1.62303e-014   XYZ
    dof rx rz
    limits (-45.0 45.0)
           (-45.0 45.0)
  end
:hierarchy
  begin
    root lhipjoint rhipjoint lowerback
    lhipjoint lfemur
    lfemur ltibia
    ltibia lfoot
    lfoot ltoes
    rhipjoint rfemur
    rfemur rtibia
    rtibia rfoot
    rfoot rtoes
    lowerback upperback
    upperback thorax
    thorax lowerneck lclavicle rclavicle
    lowerneck upperneck
    upperneck head
    lclavicle lhumerus
    lhumerus lradius
    lradius lwrist
    lwrist lhand lthumb
    lhand lfingers
    rclavicle rhumerus
    rhumerus rradius
    rradius rwrist
    rwrist rhand rthumb
    rhand rfingers
  end

#!OML:ASF G:\JayActor3\Patient Classification 1\Patient 1\Session 6\male.ASF
:FULLY-SPECIFIED
:DEGREES
370
root 45.3677 15.2049 9.23539 187.989 -39.4079 -182.467
lowerback 21.1724 -1.74197 3.95362
upperback 8.83657 -2.66461 1.83784
thorax -2.26109 -1.77573 0.335301
lowerneck 4.87487 1.6012 7.93649
upperneck 8.97202 2.36888 -6.27252
head 2.24704 1.16642 -3.47597
rclavicle -5.60573e-014 2.78299e-014
rhumerus -30.1551 8.33336 -84.021
rradius 127.576
rwrist 16.4974
rhand 19.4574 -17.2385
rfingers 7.12502
rthumb 44.0293 -41.1105
lclavicle -5.60573e-014 2.78299e-014
lhumerus -37.1146 -6.01954 85.609
lradius 133.067
lwrist 5.90946
lhand 7.72468 37.9598
lfingers 7.12502
lthumb 32.9652 64.9674
rfemur -43.8663 -0.991268 23.0342
rtibia 55.702
rfoot -21.0694 -13.2938
rtoes 8.08397
lfemur -38.5176 23.9889 -11.136
ltibia 100.606
lfoot -9.69219 -1.50813
ltoes -15.3432
371
root 45.3514 15.1745 9.16714 187.941 -39.5567 -182.41
lowerback 21.283 -1.70766 3.97537
upperback 8.87136 -2.61889 1.90518
thorax -2.27473 -1.7582 0.388217
lowerneck 5.12831 1.57661 7.92761
upperneck 8.784 2.34309 -6.12643
head 2.13322 1.15935 -3.42207
rclavicle -7.15625e-014 5.32743e-014
rhumerus -30.1384 8.32841 -83.9147
rradius 127.544
rwrist 16.4735
rhand 19.5983 -17.29
rfingers 7.12502
rthumb 44.1607 -41.1127
lclavicle -7.15625e-014 5.32743e-014
lhumerus -37.0949 -5.94702 85.5524
lradius 133.103
lwrist 5.93334
lhand 7.6655 37.9236
lfingers 7.12502
lthumb 32.9089 64.943
rfemur -43.927 -1.08564 23.2512
rtibia 56.3184
rfoot -21.5765 -13.3806
rtoes 7.8575
lfemur -40.4547 24.3384 -11.2091
ltibia 102.435
lfoot -9.96877 -2.05064
ltoes -15.5468
372
root 45.3344 15.1434 9.09884 187.89 -39.69 -182.366
lowerback 21.3865 -1.66753 3.97898
upperback 8.90473 -2.56899 1.96403
thorax -2.28622 -1.73852 0.441042
lowerneck 5.36704 1.55393 7.93538
upperneck 8.61337 2.32013 -5.98604
head 2.02914 1.15342 -3.37385
rclavicle 8.34896e-015 -2.8625e-014
rhumerus -30.1247 8.31598 -83.8213
rradius 127.504
rwrist 16.4594
rhand 19.7186 -17.3188
rfingers 7.12502
rthumb 44.2729 -41.0992
lclavicle 8.34896e-015 -2.8625e-014
lhumerus -37.0792 -5.87957 85.4953
lradius 133.133
lwrist 5.95348
lhand 7.59436 37.8859
lfingers 7.12502
lthumb 32.8413 64.9195
rfemur -43.9762 -1.159 23.4535
rtibia 56.9387
rfoot -22.0871 -13.4825
rtoes 7.61041
lfemur -42.3888 24.6808 -11.3252
ltibia 104.185
lfoot -10.2613 -2.53778
ltoes -15.7556
373
root 45.3162 15.1119 9.03035 187.833 -39.8111 -182.333
lowerback 21.4818 -1.62718 3.96543
upperback 8.94131 -2.52314 2.01735
thorax -2.2901 -1.72112 0.498067
lowerneck 5.59082 1.53991 7.935
upperneck 8.45862 2.30769 -5.84401
head 1.93412 1.15186 -3.32383
rclavicle 7.4743e-014 -6.36111e-015
rhumerus -30.1017 8.3122 -83.7396
rradius 127.453
rwrist 16.4578
rhand 19.8097 -17.3447
rfingers 7.12502
rthumb 44.3578 -41.0929
lclavicle 7.4743e-014 -6.36111e-015
lhumerus -37.0601 -5.80011 85.4403
lradius 133.152
lwrist 5.96549
lhand 7.52618 37.8501
lfingers 7.12502
lthumb 32.7764 64.8973
rfemur -44.0052 -1.21753 23.6417
rtibia 57.5585
rfoot -22.6034 -13.5908
rtoes 7.35686
lfemur -44.3088 25.0103 -11.4843
ltibia 105.847
lfoot -10.586 -2.95441
ltoes -15.9847
374
root 45.2967 15.0803 8.96156 187.767 -39.9217 -182.309
lowerback 21.5685 -1.58501 3.95007
upperback 8.97952 -2.47596 2.05767
thorax -2.28851 -1.70263 0.541465
lowerneck 5.80341 1.52538 7.9395
upperneck 8.3191 2.29389 -5.69601
head 1.84645 1.14924 -3.27302
rclavicle 8.07066e-014 -3.73715e-014
rhumerus -30.0834 8.29603 -83.6794
rradius 127.397
rwrist 16.4706
rhand 19.8688 -17.3698
rfingers 7.12502
rthumb 44.4128 -41.097
lclavicle 8.07066e-014 -3.73715e-014
lhumerus -37.0349 -5.73006 85.3775
lradius 133.159
lwrist 5.97257
lhand 7.46169 37.8178
lfingers 7.12502
lthumb 32.715 64.8777
rfemur -44.0101 -1.26655 23.8177
rtibia 58.172
rfoot -23.1215 -13.7027
rtoes 7.10631
lfemur -46.2111 25.3149 -11.6897
ltibia 107.412
lfoot -10.9395 -3.29147
ltoes -16.1821
375
root 45.276 15.0485 8.8925 187.689 -40.0269 -182.286
lowerback 21.6455 -1.54437 3.9392
upperback 9.01972 -2.43069 2.088
thorax -2.28054 -1.68463 0.571571
lowerneck 6.00503 1.51209 7.94295
upperneck 8.19527 2.28073 -5.5411
head 1.76619 1.1464 -3.21992
rclavicle 4.57205e-014 -1.66979e-014
rhumerus -30.0674 8.27264 -83.6419
rradius 127.338
rwrist 16.5015
rhand 19.9079 -17.3794
rfingers 7.12502
rthumb 44.4493 -41.0927
lclavicle 4.57205e-014 -1.66979e-014
lhumerus -37.0022 -5.66581 85.3064
lradius 133.151
lwrist 5.97883
lhand 7.42356 37.7908
lfingers 7.12502
lthumb 32.6788 64.8582
rfemur -43.9915 -1.31087 23.9904
rtibia 58.7772
rfoot -23.6328 -13.8283
rtoes 6.82689
lfemur -48.0945 25.5897 -11.931
ltibia 108.877
lfoot -11.3161 -3.56383
ltoes -16.3637
376
root 45.254 15.0165 8.82308 187.591 -40.1252 -182.254
lowerback 21.7088 -1.50446 3.94349
upperback 9.06363 -2.38471 2.1075
thorax -2.26258 -1.66558 0.580659
lowerneck 6.20474 1.4964 7.94699
upperneck 8.07784 2.26398 -5.3777
head 1.6883 1.1414 -3.16426
rclavicle 1.98785e-015 -1.27222e-014
rhumerus -30.0587 8.23698 -83.6298
rradius 127.283
rwrist 16.5478
rhand 19.9385 -17.3887
rfingers 7.12502
rthumb 44.4778 -41.091
lclavicle 1.98785e-015 -1.27222e-014
lhumerus -36.9581 -5.61087 85.2219
lradius 133.128
lwrist 5.98402
lhand 7.39951 37.7661
lfingers 7.12502
lthumb 32.6559 64.8383
rfemur -43.9467 -1.34891 24.1678
rtibia 59.3709
rfoot -24.14 -13.9632
rtoes 6.54475
lfemur -49.955 25.8314 -12.1983
ltibia 110.237
lfoot -11.7076 -3.78875
ltoes -16.5019
377
root 45.2307 14.9845 8.75322 187.474 -40.2187 -182.216
lowerback 21.762 -1.46496 3.95821
upperback 9.10773 -2.33762 2.11861
thorax -2.23988 -1.64532 0.574149
lowerneck 6.40413 1.47585 7.95824
upperneck 7.97267 2.24099 -5.21532
head 1.61454 1.13291 -3.11063
rclavicle -1.78906e-014 2.38542e-015
rhumerus -30.0553 8.18864 -83.6395
rradius 127.23
rwrist 16.6077
rhand 19.9631 -17.3902
rfingers 7.12502
rthumb 44.5007 -41.0838
lclavicle -1.78906e-014 2.38542e-015
lhumerus -36.9091 -5.56702 85.13
lradius 133.087
lwrist 5.9793
lhand 7.40581 37.7396
lfingers 7.12502
lthumb 32.6619 64.8106
rfemur -43.8738 -1.3861 24.3475
rtibia 59.9531
rfoot -24.6403 -14.109
rtoes 6.23793
lfemur -51.787 26.0265 -12.4955
ltibia 111.481
lfoot -12.1031 -3.97701
ltoes -16.5892
378
root 45.2061 14.9526 8.68285 187.332 -40.3086 -182.163
lowerback 21.8052 -1.42692 3.98963
upperback 9.15372 -2.28996 2.12311
thorax -2.21075 -1.62414 0.550517
lowerneck 6.59954 1.45198 7.98238
upperneck 7.88225 2.21433 -5.06363
head 1.5468 1.12231 -3.0634
rclavicle 5.12864e-014 -5.1684e-014
rhumerus -30.0558 8.13149 -83.6685
rradius 127.181
rwrist 16.6704
rhand 20.0006 -17.3823
rfingers 7.12502
rthumb 44.5357 -41.0624
lclavicle 5.12864e-014 -5.1684e-014
lhumerus -36.8535 -5.53371 85.0319
lradius 133.029
lwrist 5.97003
lhand 7.41313 37.7195
lfingers 7.12502
lthumb 32.6689 64.789
rfemur -43.7691 -1.4238 24.5379
rtibia 60.5212
rfoot -25.1406 -14.261
rtoes 5.93296
lfemur -53.5846 26.1696 -12.8106
ltibia 112.606
lfoot -12.4944 -4.13976
ltoes -16.6961
379
root 45.1802 14.9207 8.61194 187.166 -40.3953 -182.1
lowerback 21.841 -1.38992 4.02403
upperback 9.20028 -2.24352 2.12927
thorax -2.17724 -1.6035 0.52691
lowerneck 6.78778 1.42915 8.01105
upperneck 7.81262 2.18942 -4.93099
head 1.4879 1.112 -3.02381
rclavicle 4.77083e-015 4.05521e-014
rhumerus -30.0534 8.08017 -83.7019
rradius 127.134
rwrist 16.7287
rhand 20.0388 -17.3786
rfingers 7.12502
rthumb 44.5712 -41.0451
lclavicle 4.77083e-015 4.05521e-014
lhumerus -36.7976 -5.49794 84.9415
lradius 132.956
lwrist 5.95794
lhand 7.42535 37.6871
lfingers 7.12502
lthumb 32.6805 64.7542
rfemur -43.6313 -1.46212 24.7346
rtibia 61.0745
rfoot -25.6503 -14.4077
rtoes 5.66616
lfemur -55.3449 26.2548 -13.1463
ltibia 113.609
lfoot -12.8745 -4.28129
ltoes -16.7885
380
root 45.1532 14.8893 8.54038 186.976 -40.4776 -182.025
lowerback 21.8723 -1.35344 4.06273
upperback 9.24637 -2.19705 2.13593
thorax -2.14196 -1.5827 0.501239
lowerneck 6.97143 1.40543 8.0504
upperneck 7.76063 2.1643 -4.81994
head 1.43631 1.10128 -2.99385
rclavicle -1.09729e-013 5.32743e-014
rhumerus -30.0487 8.03526 -83.7403
rradius 127.087
rwrist 16.7812
rhand 20.0871 -17.3708
rfingers 7.12502
rthumb 44.6162 -41.02
lclavicle -1.09729e-013 5.32743e-014
lhumerus -36.7472 -5.46228 84.8575
lradius 132.874
lwrist 5.94097
lhand 7.44514 37.667
lfingers 7.12502
lthumb 32.6993 64.7301
rfemur -43.4568 -1.49602 24.94
rtibia 61.609
rfoot -26.1688 -14.558
rtoes 5.41854
lfemur -57.0625 26.276 -13.4983
ltibia 114.484
lfoot -13.2303 -4.40208
ltoes -16.8203
